<?xml version='1.0' encoding='iso-8859-1'?>
<svg version="1.1" xmlns="http://www.w3.org/2000/svg" viewBox="0 0 463 463" xmlns:xlink="http://www.w3.org/1999/xlink" enable-background="new 0 0 463 463" fill="#ffffff">
  <g>
    <path d="m461.623,227.168c-1.529-2.161-36.926-51.287-103.115-68.91 17.909-66.207-7.087-121.489-8.201-123.897-1.33-2.877-4.33-4.608-7.483-4.32-2.639,0.239-62.952,6.224-111.323,54.771-48.372-48.547-108.686-54.532-111.324-54.771-3.155-0.289-6.153,1.443-7.483,4.32-1.114,2.408-26.11,57.69-8.201,123.897-66.19,17.623-101.587,66.749-103.116,68.91-1.836,2.596-1.836,6.067 4.66294e-15,8.663 1.529,2.161 36.926,51.287 103.115,68.91-17.909,66.207 7.087,121.489 8.201,123.897 1.33,2.877 4.329,4.609 7.483,4.32 2.639-0.239 62.952-6.224 111.323-54.771 48.371,48.547 108.685,54.532 111.323,54.771 0.228,0.021 0.454,0.031 0.68,0.031 2.9,0 5.569-1.682 6.804-4.351 1.114-2.408 26.11-57.69 8.201-123.897 66.189-17.623 101.586-66.749 103.115-68.91 1.837-2.595 1.837-6.067 0.001-8.663zm-122.892-181.399c5.526,14.971 19.345,60.85 4.261,112.173l-35.065,20.405c-3.945-1.701-8.669-2.015-12.787-2.282-2.226-0.144-5.799-0.375-7.329-0.875-0.499-1.53-0.729-5.103-0.874-7.33-0.274-4.247-0.592-9.144-2.438-13.16l25.495-44.159c2.071-3.587 0.842-8.174-2.745-10.245-3.59-2.072-8.175-0.842-10.245,2.745l-25.495,44.158c-4.239,0.412-8.491,2.5-12.42,4.434-2.041,1.004-5.318,2.617-6.918,2.936-1.161-1.071-3.088-3.96-4.29-5.763-2.404-3.607-5.184-7.767-8.882-10.343v-39.812c36.981-39.121 83.95-50.174 99.732-52.882zm-32.86,189.632c-5.162,3.441-10.5,7-12.054,12.809-1.593,5.959 1.296,11.828 4.089,17.503 0.783,1.592 1.946,3.954 2.549,5.636-1.783,0.33-4.475,0.503-6.285,0.621-6.267,0.405-12.748,0.824-17.063,5.14-4.316,4.315-4.735,10.796-5.142,17.063-0.116,1.81-0.291,4.5-0.62,6.284-1.682-0.604-4.043-1.766-5.634-2.549-5.675-2.793-11.542-5.684-17.502-4.09-5.809,1.553-9.367,6.891-12.809,12.053-1.067,1.601-2.678,4.016-3.901,5.393-1.224-1.377-2.834-3.792-3.901-5.394-3.442-5.162-7.001-10.5-12.81-12.053-1.178-0.315-2.352-0.455-3.522-0.455-4.749,0-9.427,2.302-13.979,4.543-1.592,0.783-3.954,1.946-5.637,2.549-0.329-1.784-0.503-4.476-0.62-6.286-0.405-6.267-0.824-12.747-5.141-17.064-4.315-4.315-10.796-4.734-17.063-5.14-1.809-0.117-4.5-0.291-6.283-0.621 0.604-1.681 1.766-4.042 2.549-5.633 2.794-5.675 5.683-11.543 4.09-17.502-1.553-5.809-6.891-9.368-12.054-12.809-1.601-1.067-4.016-2.677-5.393-3.901 1.377-1.224 3.792-2.834 5.394-3.901 5.162-3.441 10.5-7 12.054-12.809 1.593-5.959-1.296-11.828-4.089-17.503-0.718-1.459-1.75-3.561-2.382-5.198 0.038-0.061 0.083-0.115 0.119-0.177 0.064-0.111 0.115-0.225 0.172-0.337 1.763-0.28 4.163-0.438 5.828-0.545 6.267-0.405 12.748-0.824 17.063-5.14 4.316-4.315 4.735-10.796 5.142-17.063 0.116-1.81 0.291-4.5 0.62-6.284 1.682,0.604 4.043,1.766 5.634,2.549 5.676,2.794 11.544,5.683 17.502,4.09 5.809-1.553 9.367-6.891 12.809-12.053 1.067-1.601 2.678-4.016 3.901-5.393 1.224,1.377 2.834,3.792 3.901,5.394 3.442,5.162 7.001,10.5 12.81,12.053 5.952,1.591 11.826-1.294 17.502-4.088 1.592-0.784 3.954-1.946 5.637-2.549 0.329,1.783 0.504,4.475 0.62,6.285 0.405,6.268 0.824,12.748 5.141,17.065 4.315,4.315 10.796,4.734 17.063,5.14 1.509,0.097 3.625,0.236 5.323,0.47 0.057,0.109 0.107,0.22 0.169,0.328 0.139,0.24 0.298,0.461 0.459,0.679-0.637,1.564-1.559,3.44-2.217,4.776-2.794,5.675-5.683,11.543-4.09,17.502 1.553,5.809 6.891,9.368 12.054,12.809 1.601,1.067 4.016,2.677 5.393,3.901-1.379,1.225-3.794,2.835-5.396,3.902zm-181.599-189.644c15.765,2.674 62.631,13.639 99.728,52.893v39.815c-3.698,2.576-6.478,6.736-8.882,10.343-1.202,1.803-3.127,4.691-4.289,5.763-1.6-0.32-4.876-1.933-6.916-2.937-3.93-1.935-8.185-4.024-12.425-4.436l-25.493-44.156c-2.07-3.587-6.66-4.817-10.245-2.745-3.587,2.071-4.816,6.658-2.745,10.245l25.497,44.161c-1.844,4.015-2.162,8.91-2.436,13.154-0.145,2.227-0.376,5.8-0.875,7.329-1.529,0.499-5.103,0.73-7.329,0.874-4.27,0.276-9.195,0.599-13.224,2.471l-34.403-19.831c-15.451-51.648-1.509-97.921 4.037-112.943zm-107.221,185.743c10.276-12.315 43.354-47.353 95.659-59.824l34.501,19.889c0.429,4.214 2.502,8.439 4.424,12.345 1.005,2.041 2.618,5.318 2.938,6.918-1.072,1.162-3.961,3.087-5.764,4.29-3.607,2.405-7.767,5.184-10.343,8.882h-50.966c-4.143,0-7.5,3.358-7.5,7.5s3.357,7.5 7.5,7.5h50.965c2.576,3.698 6.735,6.477 10.342,8.882 1.803,1.202 4.691,3.127 5.764,4.289-0.32,1.6-1.933,4.876-2.938,6.916-1.891,3.842-3.924,7.993-4.399,12.138l-34.87,20.017c-52.113-12.544-85.068-47.463-95.313-59.742zm107.218,185.731c-5.565-15.077-19.539-61.505-3.931-113.271l34.12-19.587c4.061,1.948 9.067,2.281 13.401,2.561 2.226,0.144 5.799,0.375 7.329,0.875 0.499,1.53 0.729,5.103 0.874,7.329 0.274,4.247 0.592,9.145 2.438,13.161l-25.495,44.159c-2.071,3.587-0.842,8.174 2.745,10.245 1.182,0.682 2.471,1.006 3.743,1.006 2.592,0 5.113-1.346 6.502-3.751l25.495-44.158c4.239-0.412 8.491-2.501 12.42-4.435 2.041-1.004 5.318-2.617 6.918-2.936 1.161,1.071 3.088,3.96 4.29,5.763 2.404,3.607 5.184,7.767 8.882,10.343v39.814c-36.98,39.121-83.949,50.174-99.731,52.882zm214.463-.001c-15.796-2.711-62.758-13.766-99.732-52.882v-39.814c3.698-2.576 6.478-6.736 8.882-10.343 1.202-1.803 3.127-4.691 4.289-5.763 1.6,0.32 4.876,1.933 6.916,2.937 3.93,1.935 8.184,4.023 12.424,4.435l25.494,44.157c1.389,2.406 3.91,3.751 6.502,3.751 1.272,0 2.563-0.324 3.743-1.006 3.587-2.071 4.816-6.658 2.745-10.245l-25.497-44.161c1.844-4.015 2.162-8.91 2.436-13.154 0.145-2.227 0.376-5.8 0.875-7.329 1.529-0.499 5.103-0.73 7.329-0.874 4.243-0.274 9.135-0.592 13.149-2.434l34.519,19.935c15.381,51.577 1.472,97.769-4.074,112.79zm11.415-125.873l-34.347-19.835c-0.409-4.243-2.5-8.5-4.435-12.432-1.005-2.041-2.618-5.318-2.938-6.918 1.072-1.162 3.961-3.087 5.764-4.29 3.607-2.405 7.767-5.184 10.343-8.882h50.966c4.143,0 7.5-3.358 7.5-7.5s-3.357-7.5-7.5-7.5h-50.965c-2.576-3.698-6.735-6.477-10.342-8.882-1.803-1.202-4.691-3.127-5.764-4.289 0.32-1.6 1.933-4.876 2.938-6.916 1.993-4.049 4.148-8.442 4.465-12.809l33.696-19.608c52.747,12.31 86.096,47.63 96.423,60.004-10.288,12.326-43.416,47.416-95.804,59.857z"/>
    <path d="m231.5,200c-17.369,0-31.5,14.131-31.5,31.5s14.131,31.5 31.5,31.5 31.5-14.131 31.5-31.5-14.131-31.5-31.5-31.5zm0,48c-9.098,0-16.5-7.402-16.5-16.5s7.402-16.5 16.5-16.5 16.5,7.402 16.5,16.5-7.402,16.5-16.5,16.5z"/>
  </g>
</svg>
