<svg enable-background="new 0 0 512 512" height="512" viewBox="0 0 512 512" width="512" xmlns="http://www.w3.org/2000/svg" fill="currentColor">
  <path d="m481.5 15c0 57.458-49 106-107 106h-16.886c19.653-19.274 31.886-46.22 31.886-76v-45h-45c-57.897 0-105 47.551-105 106v15h-15c-74.439 0-135 60.561-135 135v17.521c-4.714-1.647-9.768-2.521-15-2.521-18.5 0-34.408 10.662-41.517 27.824-7.101 17.141-3.385 35.915 9.697 48.996l21.213-21.213c-6.526-6.527-4.095-14.128-3.194-16.303.905-2.182 4.572-9.304 13.801-9.304 8.563 0 12.299 6.012 13.508 8.596 2.373 5.072 2.031 11.198-1.982 16.005l-71.67 88.046c-8.936 10.744-13.856 24.36-13.856 38.353 0 33.161 25.847 60 59 60 17.908 0 33.997-7.896 45-20.378 11.003 12.482 27.093 20.378 45 20.378 33.084 0 60-26.916 60-60 0-14.029-4.945-27.678-13.871-38.369l-72.654-88.03c-5.632-6.745-2.941-13.956-1.982-16.005 1.209-2.584 4.945-8.596 13.508-8.596 9.229 0 12.896 7.122 13.801 9.304.9 2.174 3.332 9.776-3.194 16.303l21.213 21.213c13.082-13.082 16.798-31.855 9.697-48.996-7.109-17.163-23.017-27.824-41.517-27.824-5.234 0-10.285.881-15.001 2.529v-17.529c0-41.802 24.557-77.973 60-94.855v4.855c0 57.897 47.103 105 105 105h45v-45c0-29.354-12.113-55.927-31.596-75h121.596c17.047 0 32 14.019 32 30s-14.953 30-32 30c-16.542 0-30-13.458-30-30h-30c0 33.084 26.916 60 60 60 33.607 0 62-27.477 62-60 0-22.193-13.225-42.028-32.302-52.394 38.003-24.982 62.302-66.914 62.302-113.606v-15h-30zm-392 437c0 16.542-13.458 30-30 30-16.262 0-29-13.178-29-30 0-7.117 2.404-13.759 6.954-19.209l52.046-63.938zm83.047-19.208c4.55 5.45 6.954 12.092 6.954 19.208 0 16.542-13.458 30-30 30s-30-13.458-30-30l-.001-83.481zm171.953-402.792h15v15c0 39.68-30.169 72.334-68.482 75.695l34.088-34.088-21.213-21.213-34.1 34.1c3.271-38.87 35.516-69.494 74.707-69.494zm-45 196v15h-15c-39.159 0-71.385-30.172-74.699-68.486l34.093 34.093 21.213-21.213-34.093-34.093c38.314 3.314 68.486 35.54 68.486 74.699z" />
</svg>