<svg height="512pt" viewBox="-85 0 512 512" width="512pt" xmlns="http://www.w3.org/2000/svg"><path d="m215.648438 39.515625-19.859376 19.855469c2.089844 16.058594 9.945313 32.460937 23.28125 45.796875.589844.589843 1.183594 1.167969 1.78125 1.734375 27.824219 26.289062 68.617188-14.5 42.324219-42.324219-.566406-.601563-1.148437-1.195313-1.734375-1.78125-13.335937-13.335937-29.734375-21.191406-45.792968-23.28125zm0 0" fill="#d675a7"/><path d="m219.804688 35.359375-28.171876 28.171875-15.34375-15.34375c-7.226562-7.226562-7.226562-18.9375 0-26.164062l2.007813-2.007813c7.226563-7.226563 18.9375-7.226563 26.164063 0zm0 0" fill="#cbe558"/><path d="m116.550781 409.636719 10.253907-105.527344c2.234374-22.957031 21.535156-40.464844 44.597656-40.449219 23.023437.011719 42.285156 17.480469 44.539062 40.394532l10.390625 105.644531zm0 0" fill="#d675a7"/><path d="m116.910156 376.554688 49.792969-105.667969c10.832031-22.988281 2.433594-50.441407-19.40625-63.433594-21.800781-12.96875-49.882813-7.292969-64.9375 13.125l-69.402344 94.136719zm0 0" fill="#e199be"/><path d="m28.902344 363.878906c.316406-7.402344-3.207032-14.765625-9.425782-19.683594-15.664062-12.382812-11.058593-35.574218 7.789063-39.246093 7.484375-1.457031 13.457031-6.421875 15.96875-13.269531 6.328125-17.253907 31.152344-18.511719 42.003906-2.132813 4.308594 6.503906 11.523438 10.796875 19.296875 11.480469 19.570313 1.71875 30.308594 24.132812 18.171875 37.929687-4.824219 5.476563-6.332031 13.09375-4.042969 20.367188 5.765626 18.3125-12.417968 33.425781-30.773437 25.574219-7.289063-3.121094-15.441406-2.707032-21.796875 1.105468-16.007812 9.597656-37.984375-3.476562-37.191406-22.125zm0 0" fill="#f0cedf"/><path d="m225.925781 376.554688-49.792969-105.667969c-10.832031-22.988281-2.433593-50.441407 19.40625-63.433594 21.800782-12.96875 49.882813-7.292969 64.933594 13.125l69.40625 94.136719zm0 0" fill="#e199be"/><path d="m116.550781 218.851562 10.253907-105.527343c2.234374-22.957031 21.535156-40.464844 44.597656-40.449219 23.023437.011719 42.285156 17.480469 44.539062 40.394531l10.390625 105.644531zm0 0" fill="#d675a7"/><g fill="#f0cedf"><path d="m151.777344 249.738281c-3.191406-5.921875-9.359375-10.027343-16.492188-10.980469-17.964844-2.390624-25.136718-22.621093-12.140625-34.234374 5.164063-4.609376 7.519531-11.253907 6.300781-17.765626-3.070312-16.394531 15.710938-28.898437 31.777344-21.15625 6.382813 3.074219 14.003906 3.074219 20.386719 0 16.066406-7.742187 34.847656 4.761719 31.777344 21.15625-1.21875 6.511719 1.136719 13.15625 6.300781 17.765626 12.996094 11.613281 5.824219 31.84375-12.140625 34.234374-7.132813.953126-13.300781 5.058594-16.492187 10.980469-8.03125 14.917969-31.246094 14.917969-39.277344 0zm0 0"/><path d="m313.929688 363.878906c-.316407-7.402344 3.210937-14.765625 9.429687-19.683594 15.660156-12.382812 11.058594-35.574218-7.789063-39.246093-7.484374-1.457031-13.457031-6.421875-15.96875-13.269531-6.332031-17.253907-31.152343-18.511719-42.003906-2.132813-4.308594 6.503906-11.527344 10.796875-19.296875 11.480469-19.574219 1.71875-30.3125 24.132812-18.171875 37.929687 4.820313 5.476563 6.332032 13.09375 4.042969 20.367188-5.769531 18.3125 12.417969 33.425781 30.773437 25.574219 7.289063-3.121094 15.441407-2.707032 21.796876 1.105468 16.007812 9.597656 37.984374-3.476562 37.1875-22.125zm0 0"/><path d="m151.777344 440.523438c-3.191406-5.921876-9.359375-10.03125-16.492188-10.980469-17.964844-2.390625-25.136718-22.621094-12.140625-34.234375 5.164063-4.609375 7.519531-11.253906 6.300781-17.765625-3.070312-16.394531 15.710938-28.898438 31.777344-21.15625 6.382813 3.074219 14.003906 3.074219 20.386719 0 16.066406-7.742188 34.847656 4.761719 31.777344 21.15625-1.21875 6.511719 1.136719 13.15625 6.300781 17.765625 12.996094 11.613281 5.824219 31.84375-12.140625 34.234375-7.132813.949219-13.300781 5.058593-16.492187 10.980469-8.03125 14.917968-31.246094 14.917968-39.277344 0zm0 0"/></g><path d="m127.160156 39.515625 19.859375 19.855469c-2.089843 16.058594-9.945312 32.460937-23.28125 45.796875-.589843.589843-1.183593 1.167969-1.78125 1.734375-27.824219 26.289062-68.617187-14.5-42.324219-42.324219.566407-.601563 1.144532-1.195313 1.734376-1.78125 13.335937-13.335937 29.734374-21.191406 45.792968-23.28125zm0 0" fill="#d675a7"/><path d="m123.003906 35.359375 28.171875 28.171875 15.34375-15.34375c7.222657-7.226562 7.222657-18.9375 0-26.164062l-2.011719-2.007813c-7.222656-7.226563-18.9375-7.226563-26.160156 0zm0 0" fill="#cbe558"/><path d="m341.925781 318.0625c-.726562-2.996094-1.878906-5.792969-3.390625-8.347656-.082031-.140625-.175781-.273438-.261718-.410156-.8125-1.320313-1.722657-2.574219-2.722657-3.746094l-43.277343-58.703125c-3.277344-4.445313-9.539063-5.386719-13.984376-2.113281-4.445312 3.277343-5.390624 9.539062-2.113281 13.984374l6.996094 9.492188c-.03125-.003906-.0625-.011719-.09375-.015625-13.359375-1.574219-26.316406 4.496094-33.816406 15.816406-2.644531 3.992188-7.070313 6.625-11.839844 7.042969-13.53125 1.191406-25.039063 9.6875-30.039063 22.171875-.039062.097656-.066406.195313-.105468.289063l-21.519532-45.667969c5.96875-2.824219 10.945313-7.390625 14.101563-13.253907 1.675781-3.109374 5.042969-5.28125 9.007813-5.808593 12.601562-1.679688 22.632812-9.882813 26.175781-21.410157.851562-2.761718 1.261719-5.570312 1.269531-8.347656.003906-.132812-.007812-.269531-.011719-.402344-.015625-1.433593-.144531-2.855468-.375-4.265624l-8.855469-91.664063c4.515626 1.816406 9.117188 2.648437 13.636719 2.648437 10.855469 0 21.222657-4.796874 28.671875-12.25 13.644532-13.644531 18.394532-37.054687 1.066406-55.390624-.632812-.671876-1.277343-1.332032-1.933593-1.988282-11.21875-11.222656-24.832031-19.316406-39.222657-23.507812-.476562-1.4375-1.273437-2.789063-2.414062-3.929688l-15.34375-15.34375c-8.285156-8.285156-20.449219-10.390625-30.710938-6.3125-1.382812-3.863281-5.066406-6.628906-9.402343-6.628906-4.339844 0-8.027344 2.769531-9.410157 6.636719-10.261718-4.085938-22.4375-1.988281-30.734374 6.304687l-15.339844 15.34375c-1.140625 1.144532-1.941406 2.496094-2.414063 3.929688-14.394531 4.195312-28.003906 12.289062-39.222656 23.507812-.65625.65625-1.300781 1.320313-1.933594 1.988282-17.328125 18.335937-12.578125 41.746093 1.066407 55.394531 7.453124 7.449219 17.8125 12.246093 28.671874 12.246093 4.605469 0 9.296876-.867187 13.898438-2.757812l-6.863281 69.359375c-13.875 3.113281-26.328125 11.160156-34.824219 22.6875l-67.027344 90.917969c-1 1.171875-1.910156 2.421875-2.722656 3.742187-.089844.140625-.183594.273438-.261719.417969-1.511719 2.550781-2.667969 5.351562-3.394531 8.34375-3.042969 12.523438 1.695312 25.542969 12.367188 33.980469 3.710937 2.933593 5.820312 7.199219 5.640624 11.410156-.527343 12.308594 6.054688 24.0625 17.167969 30.675781 5.695313 3.386719 12.003907 5.085938 18.222657 5.085938 5.929687 0 11.777343-1.542969 16.929687-4.636719 3.617187-2.164063 8.371094-2.347656 12.722656-.484375 9.054688 3.871094 18.726563 3.847656 27.007813.265625-4.433594 7.035156-5.675782 15.5625-3.175782 23.6875 3.546876 11.527344 13.574219 19.730469 26.175782 21.410156 3.964844.527344 7.332031 2.699219 9.007812 5.808594 3.894532 7.234375 10.5625 12.5 18.445313 14.933594v41.800781c0 5.523438 4.476562 10 10 10 5.523437 0 10-4.476562 10-10v-41.800781c7.882812-2.433594 14.546875-7.699219 18.445312-14.933594 1.675781-3.109375 5.039063-5.28125 9.007813-5.808594 12.597656-1.679687 22.628906-9.882812 26.175781-21.410156 2.496094-8.125 1.257813-16.652344-3.175781-23.6875 8.277344 3.582031 17.953125 3.605469 27.007812-.269531 4.347656-1.859375 9.101563-1.679688 12.71875.492187 5.15625 3.089844 11 4.632813 16.929688 4.632813 6.222656 0 12.53125-1.699219 18.222656-5.085938 11.117188-6.613281 17.695312-18.367187 17.171875-30.675781-.179687-4.210937 1.925781-8.476563 5.640625-11.414063 10.667969-8.433593 15.40625-21.453124 12.363281-33.976562zm-170.507812-33.722656 28.605469 60.707031c-7.449219-1.898437-15.480469-1.175781-22.753907 2.332031-3.664062 1.765625-8.039062 1.765625-11.703125 0-7.277344-3.507812-15.304687-4.230468-22.753906-2.332031zm34.8125-55.371094c-10.304688 1.371094-19.269531 7.410156-23.976563 16.148438-2 3.714843-6.050781 5.933593-10.835937 5.933593-4.785157 0-8.835938-2.21875-10.835938-5.933593-4.707031-8.738282-13.667969-14.777344-23.976562-16.148438-5.691407-.757812-8.742188-4.355469-9.699219-7.464844-.179688-.578125-.339844-1.320312-.382812-2.160156l.25-2.527344c.394531-1.507812 1.28125-3.144531 3.035156-4.710937 7.796875-6.964844 11.335937-17.082031 9.46875-27.066407-.871094-4.648437 1.984375-7.628906 3.761718-8.992187 1.960938-1.5 4.785157-2.6875 7.988282-2.6875 1.859375 0 3.84375.402344 5.859375 1.371094 9.097656 4.382812 19.964843 4.386719 29.0625 0 5.488281-2.644531 10.753906-1.054688 13.847656 1.316406 1.78125 1.363281 4.632813 4.34375 3.761719 8.992187-1.867188 9.984376 1.671875 20.101563 9.46875 27.0625 1.777344 1.589844 2.660156 3.242188 3.046875 4.765626l.238281 2.46875c-.046875.84375-.207031 1.585937-.382812 2.167968-.957032 3.109375-4.007813 6.707032-9.699219 7.464844zm-34.6875-146.09375c11.683593 0 22.046875 5.695312 28.359375 14.585938.214844.316406.433594.628906.648437.945312 3.050781 4.613281 5.046875 10.023438 5.617188 15.910156l4.328125 44.816406c-9.785156-6.695312-22.351563-7.65625-33.230469-2.417968-3.660156 1.765625-8.039063 1.765625-11.703125 0-10.820312-5.214844-23.308594-4.289063-33.070312 2.308594l4.429687-44.789063c1.769531-17.878906 16.652344-31.359375 34.621094-31.359375zm84.367187-11.429688c9.625 10.1875 5.652344 21.191407-.671875 27.515626-6.328125 6.328124-17.328125 10.296874-27.515625.671874-.535156-.503906-1.058594-1.015624-1.582031-1.535156-3.070313-3.070312-5.835937-6.359375-8.285156-9.8125-.566407-.894531-1.164063-1.765625-1.78125-2.628906-4.625-7.148438-7.890625-14.914062-9.566407-22.859375l12.5625-12.5625c12.851563 2.707031 25.238282 9.566406 35.300782 19.632813.519531.519531 1.03125 1.046874 1.539062 1.578124zm-70.539062-44.359374c1.605468-1.605469 3.738281-2.488282 6.007812-2.488282 2.269532 0 4.40625.882813 6.011719 2.488282l8.273437 8.273437-7.019531 7.015625-7.011719 7.011719-8.273437-8.273438c-.703125-.703125-1.257813-1.511719-1.671875-2.386719.304688-2.402343.304688-4.839843 0-7.242187.414062-.875.96875-1.683594 1.675781-2.390625zm-33.941406-2.488282c2.269531 0 4.402343.882813 6.007812 2.488282l2.011719 2.011718c.695312.695313 1.25 1.496094 1.660156 2.363282-.152344 1.199218-.238281 2.417968-.238281 3.644531 0 1.230469.085937 2.445312.238281 3.648437-.410156.863282-.964844 1.664063-1.660156 2.363282l-8.273438 8.269531-7.011719-7.011719-7.019531-7.015625 8.273438-8.273437c1.605469-1.605469 3.738281-2.488282 6.011719-2.488282zm-63.859376 74.363282c-6.324218-6.324219-10.296874-17.328126-.667968-27.515626.5-.53125 1.015625-1.058593 1.535156-1.578124 10.0625-10.0625 22.449219-16.925782 35.300781-19.632813l12.5625 12.5625c-2.710937 12.851563-9.570312 25.234375-19.632812 35.296875-.523438.523438-1.046875 1.035156-1.582031 1.539062-10.1875 9.628907-21.1875 5.65625-27.515626-.671874zm2.839844 127.550781c4.265625-5.789063 10.042969-10.242188 16.589844-12.96875l-.070312.714843c-.242188 1.4375-.378907 2.894532-.394532 4.363282-.007812.132812-.015625.269531-.011718.402344.003906 2.78125.417968 5.59375 1.265624 8.359374 3.546876 11.527344 13.578126 19.734376 26.175782 21.410157 3.964844.527343 7.335937 2.699219 9.007812 5.808593 3.15625 5.863282 8.136719 10.429688 14.105469 13.253907l-21.523437 45.671875c-.035157-.097656-.066407-.195313-.105469-.292969-4.996094-12.484375-16.507813-20.980469-30.035157-22.171875-4.769531-.417969-9.195312-3.050781-11.839843-7.039062-7.5-11.324219-20.460938-17.390626-33.816407-15.820313-.03125.007813-.0625.011719-.09375.015625zm15.882813 147.40625c-2.894531 2.617187-8.210938 4.464843-14.46875 1.785156-10.230469-4.378906-21.773438-3.730469-30.871094 1.726563-4.3125 2.582031-9.785156 2.398437-14.644531-.488282-4.855469-2.890625-7.628906-7.613281-7.414063-12.632812 0 0 0 0 0-.003906.453125-10.601563-4.488281-21.050782-13.21875-27.949219-5.339843-4.222657-6.257812-9.777344-5.335937-13.570313.234375-.953125.589844-1.828125 1.039062-2.640625l1.515625-2.054687c1.566407-1.65625 3.695313-2.820313 6.28125-3.324219 10.953125-2.132813 19.714844-9.476563 23.445313-19.644531 1.984375-5.402344 6.78125-6.738282 9.464844-7.054688.546874-.0625 1.117187-.097656 1.707031-.097656 4.332031 0 9.621093 1.839844 13.105469 7.097656 5.980468 9.023438 15.980468 14.972656 26.761718 15.921875 7.140625.625 11.511719 5.410157 13.21875 9.675781.808594 2.023438 2.261719 7.203126-1.683594 11.683594-7.152343 8.132813-9.421874 19.335938-6.070312 29.980469.773438 2.460937.804688 4.855469.136719 6.988281l-1.171875 2.488282c-.492188.761718-1.085938 1.472656-1.796875 2.113281zm109.636719 38.25c-.957032 3.109375-4.007813 6.707031-9.699219 7.464843-10.304688 1.371094-19.269531 7.40625-23.976563 16.148438-2 3.714844-6.050781 5.929688-10.835937 5.929688-4.785157 0-8.835938-2.214844-10.835938-5.929688-4.707031-8.742188-13.671875-14.777344-23.976562-16.148438-5.691407-.757812-8.742188-4.355468-9.699219-7.464843-.613281-1.996094-1.050781-5.867188 2.902344-9.398438 7.796875-6.964843 11.335937-17.082031 9.46875-27.066406-.871094-4.648437 1.984375-7.628906 3.761718-8.992187 3.097657-2.371094 8.359376-3.957032 13.847657-1.316407 9.097656 4.386719 19.964843 4.386719 29.0625 0 5.488281-2.640625 10.753906-1.054687 13.847656 1.316407 1.78125 1.363281 4.632813 4.34375 3.761719 8.992187-1.867188 9.984375 1.671875 20.101563 9.46875 27.066406 3.953125 3.53125 3.515625 7.402344 2.902344 9.398438zm101.226562-75.816407c-8.726562 6.902344-13.667969 17.351563-13.21875 27.953126v.003906c.214844 5.019531-2.554688 9.742187-7.414062 12.632812-4.855469 2.890625-10.332032 3.070313-14.640626.488282-5.097656-3.058594-10.960937-4.605469-16.929687-4.605469-4.6875 0-9.441406.953125-13.941406 2.878906-6.257813 2.679687-11.578125.832031-14.46875-1.785156-.710938-.640625-1.308594-1.351563-1.800781-2.113281l-1.171876-2.488282c-.667968-2.136718-.636718-4.527344.140626-6.988281 3.347656-10.644531 1.078124-21.847656-6.074219-29.980469-3.945313-4.480468-2.492188-9.660156-1.683594-11.683594 1.707031-4.265624 6.078125-9.050781 13.222656-9.675781 10.777344-.949219 20.78125-6.898437 26.757813-15.921875 3.960937-5.976562 10.25-7.53125 14.8125-7 2.683594.316406 7.480468 1.652344 9.464844 7.054688 3.730468 10.167968 12.496093 17.511718 23.445312 19.644531 2.585938.503906 4.714844 1.667969 6.28125 3.324219l1.515625 2.054687c.449219.8125.808594 1.6875 1.039063 2.640625.921874 3.789063.003906 9.347656-5.335938 13.566406zm0 0"/><path d="m260.476562 210.578125c-2.640624 0-5.210937 1.0625-7.078124 2.921875-1.859376 1.871094-2.921876 4.449219-2.921876 7.078125 0 2.632813 1.0625 5.203125 2.921876 7.070313 1.867187 1.859374 4.4375 2.929687 7.078124 2.929687 2.628907 0 5.210938-1.066406 7.070313-2.929687 1.859375-1.867188 2.929687-4.4375 2.929687-7.070313 0-2.640625-1.070312-5.207031-2.929687-7.078125-1.859375-1.859375-4.441406-2.921875-7.070313-2.921875zm0 0"/></svg>