<svg id="Layer_1" enable-background="new 0 0 511.821 511.821" height="512" viewBox="0 0 511.821 511.821" width="512" xmlns="http://www.w3.org/2000/svg"><g><g><g><path d="m341.148 350.884c-7.894 0-14.507-6.166-14.962-14.146-3.234-56.721 7.105-111.795 30.733-163.692 3.433-7.54 12.326-10.87 19.866-7.437s10.869 12.327 7.437 19.866c-21.59 47.425-31.039 97.742-28.085 149.556.472 8.271-5.851 15.357-14.122 15.829-.29.016-.58.024-.867.024z" fill="#fdbf00"/></g></g><path d="m126.225 343.421 25.647 145.646c2.322 13.185 13.179 22.754 25.816 22.754h156.198c12.634 0 23.491-9.567 25.816-22.75l25.668-145.65z" fill="#8c4a37"/><path d="m491.149 198.112c-1.154-5.374-5.155-9.686-10.427-11.239l-64.159-18.902 58.483-32.31c4.811-2.658 7.782-7.734 7.746-13.23-.037-5.496-3.077-10.531-7.923-13.125l-98.501-52.71c-4.846-2.593-10.722-2.329-15.315.69s-7.167 8.307-6.71 13.784l5.553 66.456-51.207-42.801c-4.217-3.525-10.024-4.463-15.136-2.44-5.111 2.021-8.708 6.676-9.374 12.131l-13.54 110.894c-.666 5.456 1.705 10.839 6.18 14.03 2.589 1.847 5.642 2.788 8.712 2.788 2.236 0 4.483-.5 6.566-1.515l73.73-35.908 11.04 81.361c.738 5.445 4.397 10.052 9.535 12.004 1.73.657 3.534.979 5.326.979 3.529 0 7.01-1.246 9.774-3.621l84.752-72.785c4.172-3.583 6.049-9.157 4.895-14.531z" fill="#ea0016"/><g><path d="m196.433 350.884c-.288 0-.577-.008-.868-.024-8.271-.472-14.593-7.559-14.122-15.829 4.349-76.28-18.875-150.642-67.162-215.046-4.969-6.628-3.625-16.03 3.003-20.999 6.628-4.971 16.03-3.626 21 3.003 26.764 35.697 46.546 74.199 58.795 114.436 11.834 38.872 16.65 79.352 14.315 120.313-.454 7.98-7.068 14.146-14.961 14.146z" fill="#ffd321"/></g><g><path d="m384.798 350.884h-258c-8.284 0-15-6.716-15-15s6.716-15 15-15h258c8.284 0 15 6.716 15 15s-6.716 15-15 15z" fill="#b35f49"/></g><path d="m241.181 160.554-13.541-110.894c-.666-5.455-4.262-10.109-9.374-12.131-5.111-2.021-10.918-1.086-15.135 2.44l-51.456 43.008 5.576-66.729c.458-5.478-2.117-10.766-6.71-13.784-4.592-3.019-10.469-3.284-15.315-.69l-98.501 52.71c-4.846 2.594-7.886 7.629-7.922 13.125-.037 5.496 2.935 10.572 7.746 13.23l58.562 32.353-64.012 18.858c-5.272 1.553-9.272 5.865-10.427 11.239-1.154 5.373.723 10.948 4.893 14.528l84.752 72.787c2.766 2.376 6.246 3.621 9.775 3.621 1.792 0 3.597-.321 5.327-.979 5.138-1.952 8.796-6.559 9.535-12.004l11.032-81.299 73.738 35.912c2.083 1.015 4.329 1.515 6.566 1.515 3.07 0 6.123-.941 8.711-2.788 4.475-3.189 6.846-8.572 6.18-14.028z" fill="#ff1f3d"/><path d="m255.797 343.421v168.4h78.089c12.634 0 23.491-9.567 25.816-22.75l25.668-145.65z" fill="#663325"/><path d="m384.798 320.884h-129.001v30h129.001c8.284 0 15-6.716 15-15s-6.716-15-15-15z" fill="#8c4a37"/></g></svg>