<?xml version="1.0" encoding="iso-8859-1"?>
<!-- Generator: Adobe Illustrator 19.0.0, SVG Export Plug-In . SVG Version: 6.00 Build 0)  -->
<svg version="1.1" id="Capa_1" xmlns="http://www.w3.org/2000/svg" xmlns:xlink="http://www.w3.org/1999/xlink" x="0px" y="0px"
	 viewBox="0 0 511.998 511.998" style="enable-background:new 0 0 511.998 511.998;" xml:space="preserve">
<path style="fill:#FE7043;" d="M268.172,6.141c-6.05-8.189-19.763-8.189-25.813,0c-6.794,9.192-66.361,91.08-66.361,135.284
	c0,47.683,33.684,83.636,78.35,83.636c45.713,0,80.184-35.953,80.184-83.636C334.532,97.222,274.966,15.333,268.172,6.141z"/>
<path style="fill:#4CAE50;" d="M255.265,226.123c-8.863,0-16.048,7.186-16.048,16.048V365.38
	c-35.043-32.853-100.047-68.257-143.587-67.846c-4.361,0.028-8.518,1.83-11.523,4.984c-3.002,3.154-4.596,7.398-4.408,11.75
	c1.763,41.195,41.9,106.408,76.826,139.167c22.58,21.181,41.007,27.148,58.827,27.148c7.969,0,15.821-1.203,23.865-2.766v18.133
	c0,8.863,7.186,16.048,16.048,16.048s16.048-7.186,16.048-16.048V242.172C271.314,233.309,264.129,226.123,255.265,226.123z"/>
<path style="fill:#409B40;" d="M198.653,453.436c-34.926-32.759-75.063-97.972-76.826-139.167c-0.188-4.353,1.407-8.596,4.408-11.75
	c0.157-0.164,0.35-0.282,0.513-0.443c-11.03-2.93-21.6-4.631-31.118-4.541c-4.361,0.028-8.518,1.83-11.523,4.984
	c-3.002,3.154-4.596,7.398-4.408,11.75c1.763,41.195,41.9,106.408,76.826,139.167c22.58,21.181,41.007,27.148,58.827,27.148
	c7.713,0,15.324-1.152,23.097-2.641C226.287,474.503,213.358,467.232,198.653,453.436z"/>
<path style="fill:#8AC24A;" d="M427.89,264.313c-3.005-3.154-7.162-4.952-11.523-4.98c-0.172-0.004-0.345-0.004-0.521-0.004
	c-43.711,0-108.21,35.15-143.101,67.881c-36.372,34.115-32.642,59.966-28.32,89.901l0.851,5.963
	c0.936,6.747,6.03,12.166,12.702,13.522l5.921,1.222c11.225,2.339,21.875,4.561,32.744,4.561c17.824,0,36.25-5.967,58.827-27.148
	c34.926-32.759,75.067-97.968,76.83-139.163C432.485,271.715,430.891,267.471,427.89,264.313z"/>
<path style="fill:#7CB242;" d="M427.89,264.313c-3.005-3.154-7.162-4.952-11.523-4.98c-0.172-0.004-0.345-0.004-0.521-0.004
	c-8.049,0-16.813,1.211-25.96,3.358c0.659,0.506,1.314,1.019,1.895,1.626c3.002,3.158,4.596,7.402,4.408,11.754
	c-1.763,41.195-41.904,106.404-76.83,139.163c-15.731,14.759-29.429,22.032-42.331,25.143c6.571,1.156,13.059,2.006,19.614,2.006
	c17.824,0,36.25-5.967,58.827-27.148c34.926-32.759,75.067-97.968,76.83-139.163C432.485,271.715,430.891,267.471,427.89,264.313z"
	/>
<path style="fill:#F34336;" d="M358.504,38.74c-0.419-6.128-4.302-11.484-10.003-13.788c-5.709-2.304-12.217-1.144-16.773,2.974
	c-0.498,0.451-44.847,40.533-76.234,68.097c-31.388-27.564-75.737-67.646-76.234-68.097c-4.549-4.106-11.033-5.273-16.726-2.993
	c-5.689,2.28-9.588,7.597-10.042,13.709c-0.779,10.489-7.402,103.438,0.482,136.55h0.004c13.592,57.063,49.78,88.486,101.886,88.486
	c52.518,0,88.925-31.424,102.514-88.486C365.255,142.131,359.217,49.225,358.504,38.74z"/>
<path style="fill:#D82A25;" d="M358.504,38.74c-0.419-6.128-4.302-11.484-10.003-13.788c-5.709-2.304-12.217-1.144-16.773,2.974
	c-0.167,0.153-5.354,4.839-13.269,11.962c0.98,14.756,6.443,103.215-1.205,135.304c-11.774,49.442-40.701,79.596-82.376,86.778
	c6.375,1.105,13.026,1.708,19.984,1.708c52.518,0,88.925-31.424,102.514-88.486C365.255,142.131,359.217,49.225,358.504,38.74z"/>
</svg>
