<?xml version="1.0" encoding="iso-8859-1"?>
<svg version="1.1" id="Capa_1" xmlns="http://www.w3.org/2000/svg" xmlns:xlink="http://www.w3.org/1999/xlink" x="0px" y="0px"
	 viewBox="0 0 512.001 512.001" style="enable-background:new 0 0 512.001 512.001;" xml:space="preserve" fill="#ffffff">
<g>
	<g>
		<path d="M427.892,264.313c-3.005-3.154-7.162-4.953-11.523-4.984c-0.173,0-0.345,0-0.521,0c-43.71,0-108.21,35.146-143.101,67.877
			c-0.511,0.482-0.935,0.944-1.43,1.418v-66.114c43.646-6.01,73.944-36.438,86.061-87.319c7.879-33.061,1.841-125.967,1.129-136.452
			c-0.419-6.132-4.302-11.488-10.003-13.788c-5.709-2.304-12.217-1.144-16.773,2.974c-0.272,0.247-13.645,12.33-30.81,27.713
			c-14.799-24.88-29.562-45.191-32.745-49.497c-6.049-8.189-19.763-8.189-25.812,0c-3.174,4.29-17.837,24.476-32.583,49.239
			c-17.024-15.257-30.25-27.211-30.518-27.454c-4.549-4.106-11.033-5.274-16.726-2.993c-5.689,2.276-9.587,7.597-10.042,13.709
			c-0.78,10.489-7.401,103.438,0.482,136.546l0.004,0.004c12.182,51.143,42.561,81.614,86.241,87.397v102.792
			c-35.045-32.854-100.048-68.257-143.588-67.846c-4.361,0.028-8.518,1.826-11.523,4.984c-3.001,3.154-4.596,7.397-4.408,11.751
			c1.763,41.195,41.9,106.408,76.826,139.167c22.58,21.181,41.007,27.149,58.826,27.149c7.969,0,15.821-1.207,23.865-2.766v18.133
			c0,8.863,7.186,16.049,16.049,16.049s16.049-7.186,16.049-16.049v-56.621c8.555,1.7,16.879,3.048,25.327,3.048
			c17.823,0,36.25-5.967,58.826-27.149c34.926-32.76,75.067-97.972,76.83-139.163C432.488,271.711,430.894,267.471,427.892,264.313z
			 M236.532,445.639c-23.316,4.749-35.431,5.599-58.047-15.613c-24.402-22.89-52.777-65.566-62.917-97.819
			c33.586,8.017,76.936,33.359,101.729,56.616C239.894,410.02,239.815,422.143,236.532,445.639z M255.272,43.56
			c7.051,10.461,14.413,22.161,21.203,33.907c-7.213,6.414-14.384,12.761-20.979,18.556c-6.688-5.873-13.966-12.319-21.281-18.822
			C240.969,65.54,248.277,53.942,255.272,43.56z M254.865,231.581c-37.316,0-60.433-20.879-70.667-63.83l0.004,0.004
			c-4.067-17.068-3.209-60.378-1.649-93.682c18.936,16.997,44.702,40.004,62.431,55.378c6.026,5.235,14.998,5.235,21.024,0
			c17.67-15.32,43.318-38.225,62.239-55.202c1.359,33.292,1.971,76.454-2.092,93.506
			C316.07,210.106,292.083,231.581,254.865,231.581z M333.513,391.824c-22.615,21.213-34.738,20.362-58.047,15.61
			c-3.279-23.497-3.358-35.62,19.238-56.817c24.794-23.254,68.14-48.6,101.726-56.613
			C386.294,326.259,357.915,368.931,333.513,391.824z"/>
	</g>
</g>
</svg>
